<?xml version="1.0" encoding="UTF-8"?>
<svg version="1.1" xmlns="http://www.w3.org/2000/svg" width="394" height="394">
<path d="M0 0 C130.02 0 260.04 0 394 0 C394 130.02 394 260.04 394 394 C263.98 394 133.96 394 0 394 C0 263.98 0 133.96 0 0 Z " fill="#FCFCFC" transform="translate(0,0)"/>
<path d="M0 0 C-0.52500021 5.74737074 -1.18444583 11.46547418 -1.9375 17.1875 C-2.90711334 24.68111041 -3.55586023 32.18812971 -4.17724609 39.7175293 C-4.93162454 48.65115023 -5.93527025 57.54976237 -6.96020508 66.45581055 C-7.79554531 73.8245321 -8.43635096 81.16337022 -8.7890625 88.5703125 C-9 91 -9 91 -10 92 C-10.36760731 94.32817964 -10.70241581 96.6618385 -11 99 C-11.66 99 -12.32 99 -13 99 C-14.48046875 97.3125 -14.48046875 97.3125 -16.1875 95 C-19.18164543 91.0182898 -22.34453315 87.29550789 -25.71484375 83.62890625 C-27 82 -27 82 -27 80 C-30.60408097 81.4686233 -32.30387406 83.35089636 -34.625 86.4375 C-38.39709078 91.30539369 -42.42164474 95.84761749 -46.59765625 100.37109375 C-49.35753139 103.3912498 -52.00549377 106.49457065 -54.625 109.63671875 C-56 111 -56 111 -58 111 C-58.25507324 111.59119629 -58.51014648 112.18239258 -58.77294922 112.79150391 C-60.12661932 115.22789463 -61.50394742 116.55103521 -63.6328125 118.3359375 C-64.34856445 118.94147461 -65.06431641 119.54701172 -65.80175781 120.17089844 C-66.52717773 120.77450195 -67.25259766 121.37810547 -68 122 C-68.64549805 122.54946289 -69.29099609 123.09892578 -69.95605469 123.66503906 C-86.00487375 137.30284494 -102.80343677 149.39491814 -121 160 C-121.68835938 160.40202637 -122.37671875 160.80405273 -123.0859375 161.21826172 C-139.39798052 170.6906526 -156.00389169 178.60564298 -173.70117188 185.12695312 C-174.61060547 185.46791016 -175.52003906 185.80886719 -176.45703125 186.16015625 C-177.28178955 186.46574463 -178.10654785 186.77133301 -178.95629883 187.08618164 C-181.16651011 187.92858997 -181.16651011 187.92858997 -183 190 C-185.12890625 190.59765625 -185.12890625 190.59765625 -187.5625 191.0625 C-190.5677197 191.46477866 -190.5677197 191.46477866 -193 193 C-194.66617115 193.04063832 -196.33388095 193.042721 -198 193 C-198 192.34 -198 191.68 -198 191 C-195.61235021 189.36985332 -193.22665321 187.8589313 -190.75 186.375 C-189.26749224 185.46604458 -187.78572666 184.55587763 -186.3046875 183.64453125 C-185.56959961 183.19416504 -184.83451172 182.74379883 -184.07714844 182.27978516 C-174.16680045 176.1737621 -165.032057 169.31024968 -156 162 C-155.31711914 161.45005371 -154.63423828 160.90010742 -153.93066406 160.33349609 C-144.29329186 152.55723977 -134.90171973 144.61355709 -126 136 C-125.11328613 135.14583496 -124.22657227 134.29166992 -123.31298828 133.41162109 C-111.39260265 121.8962593 -99.94189801 110.40831547 -90.32763672 96.84033203 C-88.60977386 94.45907969 -86.7921557 92.16609357 -84.96704102 89.86669922 C-79.70876185 83.222867 -75.30595763 76.28848062 -71 69 C-69.38927144 66.27856548 -67.75533023 63.63299535 -66 61 C-65.34 61 -64.68 61 -64 61 C-64 59.02 -64 57.04 -64 55 C-64.59425781 54.84144531 -65.18851563 54.68289062 -65.80078125 54.51953125 C-72.52497495 52.62671778 -78.71039612 50.02522772 -85 47 C-83.64215875 42.92647625 -81.92254709 42.61687121 -78.1484375 40.6640625 C-77.54622375 40.34839828 -76.94401001 40.03273407 -76.32354736 39.70750427 C-75.0235943 39.02708312 -73.72141535 38.35090136 -72.41729736 37.67849731 C-68.97085368 35.90068609 -65.54108934 34.09118787 -62.109375 32.28515625 C-61.418367 31.92250168 -60.72735901 31.55984711 -60.01541138 31.186203 C-53.81955332 27.92654113 -47.7080913 24.52805343 -41.625 21.0625 C-40.70082275 20.537771 -39.77664551 20.01304199 -38.82446289 19.47241211 C-34.59456757 17.06550454 -30.37618225 14.63991065 -26.16796875 12.1953125 C-25.42659668 11.76855225 -24.68522461 11.34179199 -23.92138672 10.90209961 C-22.56579863 10.12135745 -21.21417972 9.33366032 -19.86767578 8.53735352 C-16.53003715 6.62028763 -14.96598745 6 -11 6 C-11 5.34 -11 4.68 -11 4 C-9.73308493 3.32591692 -8.46129251 2.66099503 -7.1875 2 C-6.47980469 1.62875 -5.77210938 1.2575 -5.04296875 0.875 C-3 0 -3 0 0 0 Z " fill="#060606" transform="translate(299,42)"/>
<path d="M0 0 C4 0 4 0 5.7109375 1.57421875 C6.26007813 2.27160156 6.80921875 2.96898437 7.375 3.6875 C9.49928594 6.36047591 11.27439939 8.19706252 14.07843971 10.21081066 C16.60191141 12.30438269 16.95765246 12.81690344 17.73828697 16.19210529 C17.72999084 18.01034195 17.72999084 18.01034195 17.7215271 19.86531067 C17.72665365 20.54336893 17.7317802 21.2214272 17.7370621 21.92003268 C17.74692355 24.18570229 17.71399034 26.4486887 17.68115234 28.71411133 C17.67945942 30.34044329 17.68041085 31.96677984 17.68380737 33.59310913 C17.68552874 38.00423162 17.65025656 42.41437499 17.60836363 46.82526994 C17.57085283 51.43633448 17.567331 56.04742154 17.56021118 60.65861511 C17.54156332 69.38870101 17.49232721 78.11833603 17.43211424 86.84822339 C17.36504717 96.78762697 17.33205962 106.72705209 17.30194163 116.66662562 C17.23922787 137.1113913 17.12919614 157.55553889 17 178 C2.15 178 -12.7 178 -28 178 C-28 128.83 -28 79.66 -28 29 C-27.01 28.67 -26.02 28.34 -25 28 C-25 27.34 -25 26.68 -25 26 C-23.63671875 24.66015625 -23.63671875 24.66015625 -21.6875 23.0625 C-17.42465257 19.4631011 -13.5384439 15.5813202 -9.68237305 11.55688477 C-8.49090704 10.33509286 -7.24906136 9.16284669 -6 8 C-5.34 8 -4.68 8 -4 8 C-3.896875 7.4225 -3.79375 6.845 -3.6875 6.25 C-2.87465516 3.58978053 -1.93155261 2.00309159 0 0 Z " fill="#050505" transform="translate(268,148)"/>
<path d="M0 0 C0 43.23 0 86.46 0 131 C-14.85 131 -29.7 131 -45 131 C-45 96.35 -45 61.7 -45 26 C-40.38 23.69 -35.76 21.38 -31 19 C-27.69718052 17.04425191 -24.46450309 15.08467182 -21.25 13 C-20.44506104 12.48598633 -19.64012207 11.97197266 -18.81079102 11.44238281 C-13.67078862 8.14139714 -8.63046271 4.73777564 -3.71484375 1.109375 C-2 0 -2 0 0 0 Z " fill="#010101" transform="translate(219,196)"/>
<path d="M0 0 C0 30.36 0 60.72 0 92 C-14.52 92 -29.04 92 -44 92 C-44 66.59 -44 41.18 -44 15 C-35.09 12.525 -35.09 12.525 -26 10 C-21.92852635 8.40334367 -17.97783047 6.78562832 -14 5 C-11.79475267 4.05526376 -9.58643314 3.11766441 -7.375 2.1875 C-6.39273438 1.76855469 -5.41046875 1.34960938 -4.3984375 0.91796875 C-2 0 -2 0 0 0 Z " fill="#050505" transform="translate(153,234)"/>
<path d="M0 0 C0.66 0 1.32 0 2 0 C2 43.23 2 86.46 2 131 C-12.85 131 -27.7 131 -43 131 C-43 96.35 -43 61.7 -43 26 C-41.68 25.67 -40.36 25.34 -39 25 C-39 25.66 -39 26.32 -39 27 C-39.66 27 -40.32 27 -41 27 C-41 60.66 -41 94.32 -41 129 C-27.14 129 -13.28 129 1 129 C0.67 86.43 0.34 43.86 0 0 Z " fill="#5C5C5C" transform="translate(217,196)"/>
<path d="M0 0 C0.66 0.33 1.32 0.66 2 1 C2.66 1.165 3.32 1.33 4 1.5 C6 2 6 2 8 3 C6.9275 3.28875 5.855 3.5775 4.75 3.875 C1.19285195 4.80984528 1.19285195 4.80984528 -1.125 6.125 C-3.50396971 7.23518586 -5.40730309 7.14403872 -8 7 C-8 6.34 -8 5.68 -8 5 C-6.3203125 3.67578125 -6.3203125 3.67578125 -4.125 2.3125 C-3.40570313 1.85488281 -2.68640625 1.39726562 -1.9453125 0.92578125 C-1.30335937 0.62027344 -0.66140625 0.31476563 0 0 Z " fill="#484848" transform="translate(109,228)"/>
<path d="M0 0 C0.33 0.66 0.66 1.32 1 2 C-0.07192184 3.3218362 -1.15802695 4.63217927 -2.25 5.9375 C-2.85328125 6.66839844 -3.4565625 7.39929688 -4.078125 8.15234375 C-6.10741134 10.10326334 -7.254407 10.61731779 -10 11 C-6.79239749 7.19364503 -3.59253891 3.45436433 0 0 Z " fill="#363636" transform="translate(194,157)"/>
<path d="M0 0 C0.99 0 1.98 0 3 0 C3.33 0.99 3.66 1.98 4 3 C-1 6 -1 6 -6 9 C-4.4705003 5.55862568 -2.54630448 2.7777867 0 0 Z " fill="#B9B8B5" transform="translate(269,122)"/>
<path d="M0 0 C0.66 0 1.32 0 2 0 C0.55218207 3.44428265 -1.27694609 5.36130962 -4.125 7.75 C-5.21167969 8.67039063 -5.21167969 8.67039063 -6.3203125 9.609375 C-6.87460938 10.06828125 -7.42890625 10.5271875 -8 11 C-8.66 10.67 -9.32 10.34 -10 10 C-9.36191406 9.44570312 -8.72382813 8.89140625 -8.06640625 8.3203125 C-7.24011719 7.59585938 -6.41382813 6.87140625 -5.5625 6.125 C-4.73878906 5.40570313 -3.91507813 4.68640625 -3.06640625 3.9453125 C-0.94017845 2.16761255 -0.94017845 2.16761255 0 0 Z " fill="#CACACB" transform="translate(241,153)"/>
<path d="M0 0 C-1.50223584 4.20626034 -4.28550034 5.73900021 -8 8 C-8.66 7.34 -9.32 6.68 -10 6 C-8.71283353 4.99421411 -7.42011342 3.99553202 -6.125 3 C-5.40570313 2.443125 -4.68640625 1.88625 -3.9453125 1.3125 C-2 0 -2 0 0 0 Z " fill="#CACAC8" transform="translate(203,186)"/>
<path d="M0 0 C0 3.33156142 -0.45664761 5.06028115 -2 8 C-4.625 9.8125 -4.625 9.8125 -7 11 C-5.22054913 6.95579349 -2.60470327 3.53921513 0 0 Z " fill="#474747" transform="translate(220,124)"/>
<path d="M0 0 C-0.33 3.3 -0.66 6.6 -1 10 C-1.33 10 -1.66 10 -2 10 C-2 7.36 -2 4.72 -2 2 C-2.99 1.67 -3.98 1.34 -5 1 C-3 0 -3 0 0 0 Z " fill="#606060" transform="translate(299,42)"/>
</svg>
